<?xml version="1.0" encoding="UTF-8" standalone="no"?>
<svg
   xmlns:dc="http://purl.org/dc/elements/1.1/"
   xmlns:cc="http://creativecommons.org/ns#"
   xmlns:rdf="http://www.w3.org/1999/02/22-rdf-syntax-ns#"
   xmlns:svg="http://www.w3.org/2000/svg"
   xmlns="http://www.w3.org/2000/svg"
   viewBox="0 0 345.64801 901.14801"
   height="901.14801"
   width="345.64801"
   id="svg10"
   version="1.1">
  <metadata
     id="metadata16">
    <rdf:RDF>
      <cc:Work
         rdf:about="">
        <dc:format>image/svg+xml</dc:format>
        <dc:type
           rdf:resource="http://purl.org/dc/dcmitype/StillImage" />
        <dc:title></dc:title>
      </cc:Work>
    </rdf:RDF>
  </metadata>
  <defs
     id="defs14" />
  <path
     d="m 229.30664,-0.66992188 c 0.002,0.002 0.004,0.001906 0.006,0.003906 0.003,-5e-5 0.005,4e-5 0.008,0 -0.005,-0.001 -0.009,-0.001906 -0.0137,-0.003906 z m 0.006,0.003906 c -2.38871,0.0426 -86.78063,8.05250512 -134.367188,12.46484362 -0.001,2.8e-4 -0.0029,-3e-4 -0.0039,0 0.001,0.003 0.0029,0.0068 0.0039,0.0098 1.322131,1.30206 2.93969,3.761003 3.44336,5.626953 0.7751,2.87135 5.061938,3.690632 6.744138,1.289062 0.6925,-0.98865 2.47228,-2.102459 3.95508,-2.474609 2.1104,-0.52967 2.82144,-0.273223 3.27734,1.179688 0.3202,1.020838 0.99987,2.638708 1.50977,3.59375 1.1632,2.17883 1.19993,7.470468 0.0723,8.173828 -0.7446,0.46021 -3.12727,7.165473 -6.07227,17.089843 -0.4897,1.65 -1.18879,5.173672 -1.55469,7.832032 -0.366,2.65835 -1.30729,6.653663 -2.09179,8.876953 -0.7844,2.2233 -1.43141,5.447665 -1.44141,7.166015 -0.0296,6.03593 -1.42845,6.15367 -5.593751,0.46875 l -3.892578,-5.314453 -0.296875,6.236328 c -0.2958,6.19489 -1.488225,8.061985 -2.703125,4.234375 -0.3491,-1.1 -1.033737,-2 -1.523437,-2 -0.4898,0 -2.036047,-1.95557 -3.435547,-4.34375 -2.1253,-3.62652 -2.439703,-5.106325 -1.908203,-8.984375 0.5737,-4.18532 0.85524,-4.587481 2.86914,-4.082031 1.6405,0.41175 2.801888,-0.160391 4.367188,-2.150391 2.6205,-3.331369 2.63585,-4.103041 0.15625,-8.169921 -1.3276,-2.17742 -2.478303,-3.033697 -3.533203,-2.628907 -1.9212,0.73726 -4.492188,5.517256 -4.492188,8.353516 0,1.42968 -0.545709,1.999488 -1.724609,1.798828 -1.167,-0.19863 -2.0581,0.70242 -2.75,2.78125 -1.0096,3.03292 -1.070381,3.056588 -4.363281,1.710938 -5.4269,-2.21767 -7.598641,-0.72907 -12.994141,8.90625 -2.5525,4.55824 -3.600622,17.633833 -2.107422,26.308593 1.495,8.685711 3.889678,16.649581 4.830078,16.068361 0.447,-0.27626 1.084839,-7.82945 1.417969,-16.785158 0.58679,-15.781728 2.052344,-23.737499 4.527344,-24.5625 0.5752,-0.19172 1.591212,1.472176 2.257812,3.697266 1.0818,3.61054 1.349782,3.85825 2.488281,2.3125 1.200002,-1.62928 1.319366,-1.618167 2.009766,0.164063 0.4976,1.28464 0.165803,2.309683 -1.029297,3.183593 -2.0832,1.52323 -1.251253,3.421875 1.498047,3.421875 2.319,0 2.506253,1.2847 0.439453,3 -2.7082,2.24765 -1.8556,4.23703 1.5,3.5 2.4005,-0.52723 3,-0.325058 3,1.013672 0,0.9202 -0.9,1.907653 -2,2.195313 -2.395,0.62631 -2.4692,1.709597 -0.5,7.291015 0.825,2.338301 1.5,6.153541 1.5,8.478511 0,5.17562 3.98631,16.5042 7.16211,20.35743 1.2866,1.56107 3.46289,4.73907 4.83789,7.06054 1.375,2.32147 3.479081,5.65691 4.675781,7.41211 4.895798,7.18059 7.463178,11.88643 6.830078,12.51953 -0.6543,0.65434 -2.56285,-1.34124 -9.310546,-9.72265 -1.8186,-2.25884 -4.165244,-4.10547 -5.214844,-4.10547 -2.0415,0 -4.580441,-3.6125 -4.119141,-5.86133 0.4678,-2.28108 -3.960775,-6.13867 -7.046875,-6.13867 -2.7751,0 -2.823034,0.0935 -2.177734,4.25 0.648,4.17424 0.625094,4.21881 -1.316406,2.5 -4.1709,-3.6925 -4.554363,-0.53157 -0.726563,6 l 2.595703,4.42578 -2.103515,1.95899 c -1.6447,1.53226 -1.883464,2.37458 -1.089844,3.85742 0.55828,1.04305 1.460859,2.17096 2.005859,2.50781 0.6164,0.38095 0.383766,1.787 -0.615234,3.71875 -1.3087,2.5307 -1.400294,3.79056 -0.496094,6.80859 0.6103,2.03701 1.109375,4.67819 1.109375,5.86914 0,2.48933 2.442372,3.80965 4.263672,2.30469 2.4607,-2.03338 8.268791,-2.47049 9.712891,-0.73047 2.0828,2.50962 -0.965466,8.0805 -5.447266,9.95313 -4.4617,1.86423 -4.622397,3.80825 -0.279297,3.38867 4.4827,-0.43305 4.8977,2.80264 0.941407,7.33789 -1.6069,1.84206 -3.214519,4.29335 -3.574219,5.44727 -0.3597,1.15391 -2.445366,3.53737 -4.634766,5.29687 -2.1895,1.7595 -3.982422,3.84741 -3.982422,4.63867 0,0.79129 -1.816762,2.64074 -4.039062,4.11133 -2.2222,1.4706 -3.657253,3.05761 -3.189453,3.52539 0.4677,0.46778 3.25777,0.39221 6.201172,-0.16601 2.9435,-0.55869 5.558446,-0.80868 5.810546,-0.55664 1.4147,1.41471 -1.41531,5.84601 -5.779296,9.05078 -4.8932,3.59191 -6.774307,6.4653 -3.253907,4.97265 0.9625,-0.40813 3.208888,-1.27493 4.992188,-1.92578 1.7832,-0.65086 4.368994,-2.24134 5.746093,-3.53515 1.377,-1.29375 2.77221,-2.08325 3.09961,-1.75586 1.2406,1.24058 -0.843838,4.82701 -3.648438,6.27734 -1.6059,0.83047 -3.656993,2.63571 -4.558593,4.01172 -1.9624,2.99501 -16.031332,13.09061 -20.332032,14.58984 -1.6761,0.58428 -3.048828,1.44074 -3.048828,1.90235 0,1.22852 6.655166,0.11096 13.197266,-2.21485 3.1325,-1.11363 6.166087,-1.8652 6.742187,-1.67187 0.5761,0.19338 -1.775009,3.72656 -5.224609,7.85156 -6.2223,7.44057 -15.655997,14.91015 -18.904297,14.96875 -0.93,0.0168 -2.012597,0.54982 -2.404297,1.18359 -1.7201,2.78319 12.835093,-1.84523 22.941407,-7.29492 3.6002,-1.94141 3.302824,0.12937 -1.171876,8.14258 -2.939199,5.26362 -4.026818,8.22417 -3.511718,9.56641 1.0725,2.79499 -9.989185,12.26563 -17.271485,14.7871 -7.745,2.68136 -4.306987,4.89985 3.820313,2.46485 3.1894,-0.95555 4.103937,-0.92705 4.773437,0.15625 0.6438,1.04177 1.714053,0.6391 4.814453,-1.81641 4.128001,-3.26948 5.199219,-3.74939 5.199219,-2.32422 0,1.40232 -17.2999,13.80052 -20.5,14.69141 -2.8866,0.80363 -2.907812,0.85097 -0.570312,1.24805 1.4898,0.25308 5.5503,-1.13466 10.5,-3.58594 4.4389,-2.19833 10.657812,-5.13969 13.820312,-6.53711 3.1625,-1.39741 5.75,-3.08963 5.75,-3.76172 0,-0.6722 0.244969,-0.97963 0.542969,-0.68164 0.7388,0.73874 -5.744756,11.56536 -9.222656,15.40039 -2.1731,2.39627 -14.848128,13.50826 -17.236328,15.11133 -0.2292,0.15382 -0.140735,0.55657 0.197265,0.89453 0.3379,0.33796 2.551769,-0.3026 4.917969,-1.42383 2.3662,-1.12119 5.940812,-2.70509 7.945312,-3.51953 2.004501,-0.81444 6.682332,-4.45739 10.394532,-8.09765 3.7122,-3.63982 6.910622,-6.4566 7.107422,-6.25977 0.7137,0.71362 -2.504538,9.76942 -4.960938,13.96094 -1.3842,2.36192 -4.814747,6.44353 -7.623047,9.07031 -2.8082,2.62678 -4.842837,5.20001 -4.523437,5.7168 1.1165,1.80653 5.397725,0.91467 9.765625,-2.03321 3.4879,-2.35396 5.056022,-4.43367 7.544922,-10 5.2038,-11.63797 6.410354,-8.15365 1.896484,5.47266 -2.02981,6.12613 -6.859288,15.60492 -9.554687,18.75 -0.8249,0.9625 -2.330904,1.75 -3.345704,1.75 -1.0783,0 -1.857953,0.72716 -1.876953,1.75 -0.0175,0.9625 -0.6925,2.6238 -1.5,3.69141 -0.8075,1.06763 -1.46875,2.30513 -1.46875,2.75 0,1.34745 5.485841,0.90481 7.556641,-0.60938 2.5088,-1.83448 4.443359,-0.33033 4.443359,3.45313 0,1.89254 -1.648047,4.76116 -5.123047,8.91992 -5.3762,6.43415 -5.917381,8.78551 -1.175781,5.10547 6.1305,-4.75808 12.212341,-9.06055 12.806641,-9.06055 1.0344,0 -0.611232,4.35421 -2.457032,6.5 -1.992998,2.31704 -5.050781,8.71678 -5.050781,10.57227 0,0.69857 -0.743997,2.09184 -1.654297,3.09765 -2.3251,2.56919 -0.392269,2.27527 5.056641,-0.77148 8.75761,-4.89471 12.964575,-0.30432 6.484375,7.07617 -2.4912,2.83739 -2.875988,3.83235 -1.929688,4.97266 1.573403,1.89584 -0.326265,5.55273 -2.884765,5.55273 -12.7076,0 -30.074466,-3.86428 -42.572266,-9.47266 -12.1354,-5.44418 -15.164265,-5.71728 -12.134765,-1.09375 1.3409,2.04653 1.824595,5.15896 1.453125,7.57227 l 44.375,6.60351 c 7.8693,0.93424 14.702246,2.047 15.185547,2.47266 1.313997,1.1575 -4.002544,5.62584 -8.464844,7.11328 -4.9677,1.65589 -5.046866,3.16375 -0.197266,3.80469 2.0807,0.275 3.783203,0.98554 3.783203,1.58008 0,0.59456 -4.05,4.8183 -9,9.38672 -4.95,4.5684 -9.9,9.43395 -11,10.81054 -1.1,1.37658 -4.813053,5.9136 -8.251953,10.08203 -10.1428,12.29463 -19.248047,32.07331 -19.248047,41.81446 0,5.27 0.0504,5.27568 12.042969,1.25781 5.0358,-1.68715 9.400319,-2.82237 9.699219,-2.52344 0.9294,0.92941 -1.890688,3.5918 -3.804688,3.5918 -2.4947,0 -3.243134,1.55776 -1.927734,4.01562 1.5114,2.82408 0.397039,5.67922 -2.818359,7.22071 -2.347401,1.12543 -2.697282,1.89367 -2.738282,6.01953 -0.0395,3.94093 -0.586544,5.28636 -3.277344,8.0625 l -3.228515,3.33203 2.527344,2.72656 c 1.6724,1.80456 2.52539,3.87431 2.52539,6.125 0,2.91321 0.655672,3.85339 4.576172,6.55078 4.6497,3.19907 6.002275,3.34204 13.484375,1.4375 1.9933,-0.50737 3.453263,0.0862 6.601563,2.67969 2.2234,1.83158 5.706914,4.68008 7.740234,6.33008 4.2872,3.47888 8.009894,8.98689 7.308594,10.81445 -0.6957,1.81278 -12.31911,17.11696 -14.16211,18.64649 -2.0421,1.69464 -2.0008,5.80058 0.0625,6.21484 1.3588,0.2728 1.274032,0.62739 -0.542968,2.26758 -2.1328,1.92526 -2.147619,1.92526 -1.574219,0 0.3184,-1.06916 -0.206516,-0.45582 -1.166016,1.36328 -3.2744,6.20769 1.192775,8.8986 8.171875,4.92187 3.0512,-1.73856 4.075993,-2.98468 4.316407,-5.2539 1.073999,-10.13993 5.515193,-24.327 8.121093,-25.9375 0.5185,-0.32047 2.433498,0.69532 4.253907,2.25586 1.8204,1.56054 5.783593,3.86875 8.808593,5.13086 3.025,1.26211 6.174999,2.87943 6.999999,3.59375 0.825,0.71432 2.625,1.45296 4,1.64062 2.0281,0.27679 2.45058,0.83455 2.23438,2.95508 -0.1466,1.43762 0.4159,3.18083 1.25,3.87305 2.3896,1.98319 1.88838,3.3255 -4.16602,11.16015 -6.9969,9.05415 -13.494137,19.00977 -12.835937,19.66797 0.5507,0.55068 1.568954,-0.6899 13.384767,-16.27734 10.1004,-13.32448 13.82572,-17.3309 21.51562,-23.14258 3.7507,-2.83462 6.51772,-4.24451 7.63282,-3.89062 1.0457,0.33191 1.98493,-0.0599 2.33593,-0.97461 0.3228,-0.84139 1.32236,-1.5293 2.22266,-1.5293 0.9004,0 2.97526,-1.125 4.60938,-2.5 1.63398,-1.375 4.02465,-2.5 5.3125,-2.5 1.2878,0 3.10516,-0.29394 4.03906,-0.65234 1.4805,-0.56811 1.5443,-0.36583 0.5039,1.57812 -1.6751,3.13007 -0.60106,5.07422 2.80274,5.07422 2.161,0 3.89605,-1.10894 6.78125,-4.33008 6.1711,-6.88951 6.64995,-7.39073 11.12695,-11.63867 5.0315,-4.77407 6.25,-5.00788 6.25,-1.19922 0,3.98611 0.98968,4.52544 3.67578,2.00195 2.6292,-2.47004 3.06854,-1.09241 0.96094,3.01172 -0.7497,1.45985 -3.52276,7.03376 -6.16406,12.38672 -10.4073,21.09177 -27.74646,39.42584 -54.47266,57.60156 -7.6458,5.1996 -23.73895,14.53322 -28.248046,16.38282 -4.0846,1.6755 -12.911903,9.02364 -11.970703,9.96484 1.1287,1.1287 13.888649,-4.5068 21.718749,-9.5918 2.75,-1.7859 12.2,-7.97129 21,-13.74609 8.8,-5.7747 17.125,-11.19818 18.5,-12.05078 1.375,-0.8526 9.475,-7.39892 18,-14.54688 11.0508,-9.26583 16.18386,-14.27066 17.88086,-17.43945 1.3091,-2.44451 3.33189,-4.86486 4.49609,-5.37695 2.7158,-1.19456 12.81961,-20.44063 15.97461,-30.42969 5.3935,-17.07625 5.57247,-32.27954 0.53907,-46.08399 -1.8583,-5.09651 -3.94227,-8.05569 -10.66407,-15.14843 -8.4833,-8.95157 -13.7137,-17.73169 -14.8457,-24.91602 -0.5651,-3.58662 1.34863,-13.30053 4.17383,-21.17578 1.6781,-4.6776 1.67108,-4.93489 -0.29102,-8.5 -1.8802,-3.41628 -2.35529,-6.29279 -5.71289,-34.67578 -0.4706,-3.97821 1.29291,-18.33723 2.53711,-20.66211 0.5411,-1.01097 1.79757,-1.83789 2.79297,-1.83789 2.1761,0 5.11914,-3.0297 5.11914,-5.26953 0,-1.94546 1.96798,-3.4033 2.08008,-1.54102 0.0433,0.71996 -0.0349,4.23554 -0.17383,7.81055 -0.4809,12.37575 -0.19274,19.66324 0.85156,21.5293 0.8562,1.52999 1.16354,0.78046 1.67579,-4.07813 0.34504,-3.2736 0.99114,-7.75117 1.43554,-9.95117 0.7983,-3.95274 0.82163,-3.97046 1.98633,-1.5 2.3282,4.93804 13.67583,20.49902 15.14453,20.76758 0.825,0.15085 3.79882,-1.73876 6.60742,-4.19922 3.8032,-3.3317 5.42804,-5.62505 6.36914,-8.98633 1.4079,-5.02866 0.74922,-8.70822 -1.20898,-6.75 -1.7204,1.72035 -2.76758,1.424 -2.76758,-0.7832 0,-1.07267 -0.74997,-2.37102 -1.66797,-2.88477 -1.4531,-0.81318 -1.50397,-1.33474 -0.38867,-4.02734 1.119,-2.70154 1.03636,-3.50703 -0.65234,-6.36914 -1.712,-2.9015 -1.78198,-3.64985 -0.60938,-6.52344 0.7284,-1.78506 2.02571,-3.24414 2.88281,-3.24414 1.2767,0 1.43894,-0.8014 0.89454,-4.43164 -0.6904,-4.60391 1.54259,-13.75028 3.99609,-16.36914 1.8061,-1.92784 2.75289,-0.39882 10.52539,16.98047 4.0419,9.03772 7.48689,15.45005 8.40039,15.63672 2.4278,0.49614 3.25748,-4.63954 1.30078,-8.04883 -2.1257,-3.70389 -9.97354,-23.64234 -12.2168,-31.03711 -0.96258,-3.17319 -3.32805,-7.79506 -5.25585,-10.26953 -1.9279,-2.47448 -3.24825,-4.75376 -2.93555,-5.06641 0.537,-0.537 11.56852,10.5965 16.94922,17.10547 3.3521,4.05506 11.51306,18.16508 12.85156,22.2207 0.5951,1.80319 1.44332,3.2793 1.88672,3.2793 1.6172,0 7.91677,-7.9321 9.95117,-12.53125 1.149,-2.59762 2.08789,-4.86955 2.08789,-5.04883 0,-0.17931 -1.47414,-1.02708 -3.27734,-1.88281 -4.164,-1.97596 -22.75882,-20.53711 -20.57422,-20.53711 0.8843,0 2.15627,-0.66153 2.82617,-1.46875 1.0218,-1.23114 0.27459,-1.91608 -4.62891,-4.25 -5.7238,-2.72432 -5.77725,-2.7893 -2.62695,-3.09375 3.6652,-0.3542 20.31016,3.84573 27.03906,6.82227 2.4729,1.09388 4.66404,1.99023 4.86914,1.99023 1.6994,0 -1.30007,-15.0755 -3.42187,-17.19727 -0.6811,-0.68119 -1.20508,-3.91368 -1.20508,-7.44531 0,-7.25696 -1.34022,-8.87068 -3.35742,-4.04297 -1.9313,4.62218 -7.86629,10.35505 -11.55859,11.16602 -3.945,0.86647 -4.9297,0.16144 -4.3086,-3.08789 0.3849,-2.01371 0.17279,-2.5013 -0.88281,-2.02344 -0.7653,0.34639 -2.18008,0.90656 -3.14258,1.24609 -2.1432,0.75595 -2.2974,3.2378 -0.25,4.02344 0.825,0.31657 1.5,0.97564 1.5,1.4668 0,0.49115 -0.675,0.89453 -1.5,0.89453 -0.825,0 -1.5,-0.45 -1.5,-1 0,-0.55 -0.9,-1 -2,-1 -2.4628,0 -2.57559,-2.21696 -0.30859,-6.05469 1.4866,-2.5166 1.5204,-3.18038 0.2832,-5.49219 -1.3304,-2.48588 -1.04497,-3.32479 5.20313,-15.29296 3.6355,-6.96385 6.91556,-13.78516 7.28906,-15.16016 0.3736,-1.375 1.70975,-5.2 2.96875,-8.5 4.0521,-10.6202 4.7109,-12.83529 6.6914,-22.5 2.074,-10.12139 3.96824,-26.02959 3.24024,-27.21289 -0.2412,-0.392 -0.8465,-7.592 -1.3457,-16 -0.9977,-16.80443 -3.27026,-33.61846 -5.50196,-40.71094 -0.7919,-2.51685 -2.37267,-7.50117 -3.51367,-11.07617 -9.2437,-28.9627 -10.12914,-32.35717 -9.05664,-34.750001 1.4691,-3.277628 2.83337,-2.763654 3.98047,1.500001 1.3062,4.8547 5.76158,20.47245 7.48828,26.25 0.7397,2.475 3.47177,10.575 6.07227,18 13.0926,37.38215 15.02311,70.10551 6.01171,101.93945 -1.3327,4.7077 -3.34159,10.3427 -4.46289,12.52149 -2.8626,5.56232 -2.58606,7.98364 1.93164,16.97656 4.9472,9.84757 9.30452,15.35169 12.82032,16.19141 4.1639,0.99451 4.47699,1.41683 2.59179,3.5 -1.5254,1.68548 -1.56483,2.11684 -0.30273,3.3789 0.7956,0.79561 2.90339,1.73771 4.68359,2.09375 2.7299,0.54597 3.23852,0.3549 3.22852,-1.22656 -0.005,-1.03125 -3.83,-9.45285 -8.5,-18.71289 -11.3888,-22.58315 -11.48119,-26.52953 -0.30469,-13.04492 3.4725,4.18961 8.00657,9.47711 10.07617,11.75 3.3418,3.67005 3.59583,3.79705 2.26563,1.13476 -2.2746,-4.5526 -4.89964,-13.46553 -4.17774,-14.1875 0.3519,-0.35185 1.82504,-0.0994 3.27344,0.56055 1.4484,0.65993 2.77828,1.05379 2.95508,0.87695 0.4594,-0.45939 -7.17448,-13.72293 -9.79688,-17.02148 -2.1889,-2.75339 -2.18978,-2.7938 -0.36718,-7.5 1.0079,-2.60244 2.26873,-7.08132 2.80273,-9.95313 0.836,-4.49571 1.27095,-5.19069 3.12695,-5 2.0264,0.20815 2.1521,-0.19825 2.1211,-6.77734 -0.0183,-3.85029 -0.2433,-9.25 -0.5,-12 -0.4662,-4.993 -0.4624,-5 2.5332,-5 2.9123,0 2.99598,-0.13097 2.83984,-4.5 -0.0883,-2.475 -1.24711,-7.88826 -2.57421,-12.0293 -2.5101,-7.83192 -2.55534,-9.9707 -0.21094,-9.9707 3.0353,0 13.15751,-5.30777 16.69531,-8.75391 4.1317,-4.02467 4.62166,-5.88889 2.03906,-7.77734 -1.4416,-1.05414 -1.50347,-1.50437 -0.38867,-2.84766 2.1345,-2.57193 0.5854,-4.82218 -3.0625,-4.44726 -4.8405,0.49746 -4.41485,-1.46377 1.09375,-5.03321 6.633,-4.298 15.31289,-14.03929 18.49219,-20.7539 3.7249,-7.86713 3.53329,-8.65253 -1.91211,-7.83594 -5.5744,0.83594 -6.33036,-0.48247 -4.17188,-7.26367 0.83822,-2.63296 1.81071,-6.65258 2.16211,-8.93164 l 0.63868,-4.14453 -4.48633,-0.35547 c -3.4506,-0.27444 -4.73713,0.0459 -5.57813,1.39258 -0.6012,0.96276 -1.67607,1.75195 -2.38867,1.75195 -0.7127,0 -3.47211,1.37904 -6.13281,3.06641 l -4.83789,3.06836 0.6875,-3.81836 c 2.0242,-11.258018 2.3902,-16.272192 1.9375,-26.533208 -0.4232,-9.59174 -0.20057,-12.103386 1.49023,-16.748046 0.64865,-1.7818 -13.84126,-13.751079 -32.6875,-28.486328 -0.003,9.99e-4 -0.007,-0.0039 -0.01,-0.0039 0.0761,0.25258 0.10166,0.529033 0.0508,0.832031 -0.1733,0.99328 0.3345,2.328064 1.1289,2.964844 1.7707,1.41953 2.93372,9.650328 1.65039,11.679688 -0.51389,0.81267 -0.93921,2.773972 -0.94921,4.357422 -0.008,1.58346 -1.14279,6.005935 -2.52149,9.828125 -4.765,13.20956 -5.65976,13.44141 -7.81836,2.02539 -1.2658,-6.69382 -1.23342,-7.323522 0.45508,-8.851562 0.9997,-0.90477 2.08601,-2.486212 2.41211,-3.513672 0.3261,-1.02747 1.37122,-1.867188 2.32422,-1.867188 4.3626,0 5.76418,-7.370759 2.09765,-11.037109 -1.12009,-1.12007 -1.78706,-2.443323 -1.48046,-2.939453 0.3067,-0.49613 -0.23879,-1.350841 -1.21289,-1.900391 -1.3316,-0.75126 -1.48696,-1.285087 -0.62696,-2.154297 0.6408,-0.64769 1.49296,-0.913816 2.28711,-0.878906 0.14083,0.006 0.27834,0.02618 0.41406,0.05078 C 259.30869,22.137008 243.46256,10.095017 229.3125,-0.65820312 Z M 194.63477,0.9609375 c -0.0166,0.001 0.0323,0.0136188 0.0488,0.0117188 0.0192,-0.002 0.0262,-0.003019 0.0566,-0.0117188 -0.0351,-8.3e-4 -0.0705,-0.002 -0.10546,0 z m 0.1582,0 c -0.006,0.002 -0.0152,0.004811 -0.0215,0.007813 0.0194,-0.002 0.0529,-0.005811 0.0723,-0.007813 -0.0169,-3e-5 -0.0339,4.8e-4 -0.0508,0 z m -43.66602,4.4726563 c -0.006,0.006 -0.009,0.012478 -0.0156,0.017578 0.008,-8e-4 0.0156,-9.475e-4 0.0234,-0.00195 -0.004,-0.005 -0.005,-0.010525 -0.008,-0.015625 z m -55.009762,5.6542972 -0.002,0.002 c 0.007,-7.5e-4 0.01408,9.85e-4 0.02148,-0.002 -0.007,5e-5 -0.01303,-7e-5 -0.01953,0 z m -3.263672,0.916015 c -0.11064,0.0101 -0.254735,0.0235 -0.359375,0.0332 h -0.002 c -0.005,0.001 -0.009,0.0029 -0.01367,0.0039 -0.001,8.8e-4 -0.0029,9.5e-5 -0.0039,0.002 -5.95483,4.73313 -11.886596,9.493854 -17.654297,14.458984 -1.89493,1.78793 -3.736533,3.632261 -5.683593,5.363281 -0.4921,0.43749 -0.863928,0.741225 -1.298828,1.115235 0.55294,0.46246 1.226609,1.147346 2.162109,2.160156 5.9424,6.43324 14.29555,8.072749 18.34375,3.599609 0.9054,-1.00047 2.232319,-3.526228 2.949219,-5.611328 0.999,-2.90604 2.012997,-3.974665 4.341797,-4.578125 4.504694,-1.16727 4.948284,-4.104817 1.255859,-8.310547 -2.55279,-2.90745 -4.158753,-6.370662 -4.001953,-8.226562 -0.0117,-0.003 -0.02566,-0.0048 -0.03516,-0.0098 z m 56.587894,2.103516 c 0.551,-0.0594 1.23473,0.151351 1.90429,0.707031 0.8009,0.6647 1.45508,1.603288 1.45508,2.085938 0,1.48074 -3.75011,0.972266 -4.34961,-0.589844 -0.48125,-1.25421 0.0719,-2.104115 0.99024,-2.203125 z m -33.02735,1.015625 c 0.11953,0.0201 0.24922,0.0713 0.38672,0.15625 0.55,0.33992 1,0.816054 1,1.058594 0,0.24254 -0.45,0.441406 -1,0.441406 -0.55,0 -1,-0.478087 -1,-1.060547 0,-0.43684 0.25469,-0.655993 0.61328,-0.595703 z M 130.80859,17.625 c 0.49538,0.0122 1.06122,0.0967 1.74414,0.236328 1.7796,0.36397 3.91379,1.22461 4.74219,1.91211 0.8284,0.687508 1.44324,1.756803 1.36524,2.376953 -0.9614,7.63896 -1.51939,9.198547 -3.61328,10.117187 -2.52503,1.10777 -2.44338,3.172057 0.10742,2.716797 3.1435,-0.56107 0.70318,4.44163 -2.82032,5.78125 -1.5377,0.58465 -2.59058,2.034055 -3.05468,4.203125 -0.3894,1.82048 -1.05135,3.760547 -1.46875,4.310547 -1.4172,1.86753 -1.73644,7.331799 -0.39844,6.818359 0.6788,-0.2605 1.49109,-1.141654 1.80469,-1.958984 0.3136,-0.81731 1.00771,-1.216359 1.54101,-0.886719 0.5795,0.35811 0.26033,1.89214 -0.79297,3.8125 -0.9697,1.76771 -2.35693,6.364844 -3.08203,10.214844 -0.725,3.85 -1.89947,8.35 -2.60937,10 -0.7099,1.65 -1.5145,5.829059 -1.78906,9.287109 -0.27461,3.45805 -1.04364,6.940815 -1.70704,7.740235 -1.2726,1.53335 -1.07804,3.279444 1.44336,12.972659 0.8584,3.3 1.84622,10.275 2.19532,15.5 0.5926,8.86909 0.49284,9.62606 -1.50586,11.41797 -2.1105,1.8922 -2.15987,1.87701 -3.54297,0.002 -3.4916,-4.77503 -9.2321,-28.16694 -9.9961,-40.732423 -0.7353,-12.09309 1.01434,-40.069198 2.89844,-46.335938 2.0891,-6.94816 6.46347,-16.351562 7.60547,-16.351562 0.5097,0 0.92578,-1.545664 0.92578,-3.433594 0,-2.52867 0.51603,-3.595394 1.95703,-4.052734 1.0758,-0.34146 2.99172,-1.853052 4.25781,-3.357422 1.45772,-1.73234 2.30685,-2.347127 3.79297,-2.310547 z m 106.10743,3.355469 c 0.51098,-0.0133 0.86725,0.419089 1.50195,1.287109 0.7261,0.99301 1.12652,2.11818 0.89062,2.5 -0.236,0.38182 1.0987,2.175738 2.9668,3.986328 2.3128,2.24168 4.03388,3.124841 5.39258,2.769532 1.2749,-0.333391 2.76475,0.298086 4.12695,1.748046 l 2.13086,2.269532 -2.40625,2.597656 c -1.3243,1.42889 -3.7149,3.280121 -5.3125,4.113281 l -2.90625,1.513672 3,-0.03906 c 4.4801,-0.0582 8.03613,-2.009998 11.36133,-6.236328 2.6355,-3.34967 3.05085,-3.563975 3.59375,-1.853515 0.3378,1.06375 0.52577,2.319602 0.41797,2.789062 -0.1078,0.46946 0.34676,2.171433 1.00976,3.783203 1.4475,3.51922 2.64741,11.519683 1.75391,11.695313 -0.3498,0.0687 -0.97422,0.188425 -1.38672,0.265625 -2.008,0.37567 -3.01156,1.802475 -2.53906,3.609375 0.2874,1.09905 -0.43005,4.360147 -1.59375,7.248047 -1.1637,2.8879 -3.19618,8.992413 -4.51758,13.564453 -2.2908,7.92629 -4.71258,12.1875 -6.92578,12.1875 -0.5589,0 -1.83795,0.744047 -2.84375,1.654297 -1.7537,1.58721 -1.83008,1.387777 -1.83008,-4.851563 0,-3.57817 -0.4349,-7.809717 -0.9668,-9.404297 -0.532,-1.59457 -1.14026,-5.495518 -1.35156,-8.667968 -0.3726,-5.59336 -1.50981,-8.47401 -2.38281,-6.03711 -0.2352,0.65658 -1.76579,2.876794 -3.40039,4.933594 -1.7674,2.224 -2.72594,4.375061 -2.36524,5.306641 0.938,2.4221 1.77003,7.066406 1.26563,7.066406 -0.2485,0 -2.6672,-2.0393 -5.375,-4.53125 -5.4005,-4.9701 -8.69911,-5.553489 -9.25391,-1.636719 -0.1817,1.28285 0.42456,3.16752 1.34766,4.1875 1.9043,2.10429 1.28553,3.724328 -1.88477,4.929688 -3.5497,1.34959 -5.23431,5.4961 -3.82031,9.40625 0.6534,1.80698 1.1875,4.24026 1.1875,5.40625 0,2.688714 1.6701,3.756924 3.5,2.238284 1.9464,-1.615455 3.25,-0.55244 3.25,2.65234 0,1.47963 0.62567,3.17664 1.38867,3.76953 0.7629,0.5929 1.93452,2.31563 2.60352,3.82813 1.2996,2.9383 3.64868,3.60465 4.95898,1.4082 1.4743,-2.47148 5.18554,-2.65821 6.80664,-0.34375 1.9266,2.74998 1.8934,3.77697 -0.0957,3.01367 -1.224,-0.46951 -1.5104,-0.0608 -1.25,1.78125 0.2464,1.74323 0.94924,2.36845 2.58984,2.31055 2.5535,-0.0901 3.0041,1.07642 0.75,1.9414 -2.4032,0.92217 -1.74196,4.24439 1.49024,7.47657 2.4232,2.42314 2.88049,3.55489 2.40039,5.95508 -0.3427,1.71354 -0.12859,3.25119 0.50781,3.64453 0.6054,0.37416 1.10156,2.57827 1.10156,4.89843 0,4.44407 2.17997,8.66407 4.47657,8.66407 0.9598,0 1.5344,1.99921 1.9414,6.75 0.318,3.7125 1.34987,11.7 2.29297,17.75 1.2122,7.7768 1.71461,17.15339 1.72461,32 0.009,19.28791 -0.1811,21.61146 -2.3457,28.5 -9.2275,29.36486 -12.14449,36.67641 -16.77539,42.05273 -1.6327,1.89551 -4.40165,5.98464 -6.15235,9.08594 -1.7507,3.10131 -4.7892,6.86472 -6.7539,8.36328 -1.9647,1.49856 -8.194,7.28619 -13.8418,12.86133 -10.3646,10.23117 -27.7459,22.63672 -31.7168,22.63672 -1.0722,0 -3.36369,0.73139 -5.09179,1.625 -4.0889,2.11445 -7.08312,3.04042 -19.75782,6.10937 -12.2872,2.97512 -18.86468,3.24016 -22.42968,0.9043 -2.7525,-1.80348 -2.84145,-2.08691 -4.56055,-14.53711 -0.6378,-4.61932 -1.85379,-9.46138 -2.70312,-10.75781 -1.27461,-1.94527 -1.33474,-2.86608 -0.33594,-5.27735 0.6656,-1.60699 2.02192,-3.65502 3.01172,-4.55078 1.6666,-1.5083 2.1213,-1.48584 6.1582,0.31836 7.0675,3.15868 7.6992,3.24441 8.375,1.11524 0.3402,-1.07193 1.34603,-1.94922 2.23633,-1.94922 0.8903,0 4.48744,-0.72014 7.99414,-1.59961 5.8837,-1.47556 6.5169,-1.4829 8.1914,0.043 1.5793,1.4292 1.88782,1.44845 2.38672,0.14843 0.4454,-1.16091 2.2012,-1.45273 7.875,-1.31054 6.7732,0.16973 7.95068,-0.13519 16.30078,-4.21094 4.95,-2.41613 11.3904,-5.90779 14.3125,-7.75977 7.5412,-4.77953 18.49877,-14.18708 19.72657,-16.93554 0.5723,-1.28108 2.19787,-3.57621 3.61132,-5.10157 4.32412,-4.66643 7.84961,-10.60742 7.84961,-13.22851 v -2.49024 l -1.75,2.44532 c -0.9625,1.34506 -3.325,5.24973 -5.25,8.67773 -2.8381,5.05401 -5.4454,7.76005 -13.7832,14.30469 -15.3698,12.06419 -22.03252,14.68469 -38.95312,15.32422 -9.7988,0.37036 -10.2997,0.2876 -11.75,-1.92578 -0.8331,-1.27157 -1.51368,-3.20022 -1.51368,-4.28711 0,-1.08689 -0.45,-2.25383 -1,-2.59375 -0.55,-0.33992 -1,0.29819 -1,1.41797 0,1.11978 -1.10015,2.75467 -2.44335,3.63476 -6.14502,4.02637 -10.55665,-1.31966 -10.55665,-12.80273 -8e-4,-3.7125 0.3375,-6.73957 0.75,-6.72657 0.4125,0.013 2.07341,1.813 3.69141,4 1.618,2.187 3.27239,3.97657 3.67774,3.97657 0.40519,0 1.48423,0.74791 2.39843,1.66211 1.405,1.40503 1.80104,1.44371 2.55664,0.25 0.4917,-0.7767 0.90016,-2.61859 0.91016,-4.0918 0.008,-1.47322 0.753,-3.41506 1.6543,-4.31641 1.5184,-1.51843 1.9041,-1.38759 5.25,1.78516 1.9861,1.88338 4.35266,3.68287 5.25976,3.99805 0.9072,0.31519 2.18013,2.17906 2.82813,4.14257 1.1965,3.62538 3.02343,4.84531 3.02343,2.01954 0,-0.85231 -0.62205,-2.76481 -1.38085,-4.25 -0.75874,-1.48519 -1.68244,-4.10732 -2.05274,-5.82813 -0.6347,-2.94953 -0.48479,-3.15762 2.62891,-3.61914 2.2897,-0.33939 4.04143,0.0876 5.70703,1.39258 1.3215,1.03527 2.58033,1.70483 2.79883,1.48633 0.2185,-0.21849 0.092,-2.70143 -0.28125,-5.51563 -0.4904,-3.69655 -1.1149,-5.11523 -2.25,-5.11523 -1.2512,0 -1.31888,-0.25334 -0.33008,-1.24219 0.9889,-0.98886 1.41419,-0.96314 2.08789,0.12695 1.6135,2.61063 8.76425,-2.6365 13.43945,-9.86133 8.7814,-13.57061 11.90094,-24.74461 9.42774,-33.77734 -0.5368,-1.95911 -0.53253,-3.91756 0.043,-4.92383 1.05791,-1.89029 8.66656,-4.16341 14.66016,-4.3789 2.2,-0.0791 5.125,-0.47697 6.5,-0.88477 2.8889,-0.8568 7.4734,1.06127 8.8457,3.70117 0.4973,0.95681 1.21807,4.32774 1.60157,7.49024 1.2178,10.04206 3.51797,6.13874 3.73047,-6.33008 0.1316,-7.72457 -3.49054,-24.78893 -6.45704,-30.41992 -1.1591,-2.2 -2.56198,-4.94634 -3.11718,-6.10157 -0.5553,-1.15522 -1.93094,-2.50522 -3.05664,-3 -1.4972,-0.65806 -2.12736,-2.00596 -2.34766,-5.01953 -0.2333,-3.19189 -1.31162,-5.30454 -4.79102,-9.38086 -2.47,-2.89363 -5.1725,-6.57573 -6.0039,-8.18359 -1.8313,-3.54134 -8.23187,-10.20707 -10.66797,-11.10937 -0.9708,-0.35956 -2.19836,-1.7906 -2.72656,-3.17969 -0.5281,-1.3891 -1.62917,-2.52539 -2.44727,-2.52539 -1.6997,0 -9.5625,-7.82912 -9.5625,-9.52149 0,-0.61502 -1.125,-2.0974 -2.5,-3.29297 -1.375,-1.19555 -2.5,-2.67462 -2.5,-3.28711 0,-0.61249 -0.675,-0.85369 -1.5,-0.53711 -0.825,0.3166 -1.5,0.19391 -1.5,-0.27148 0,-0.46539 0.675,-1.40515 1.5,-2.08984 0.825,-0.68469 1.5,-2.28991 1.5,-3.56641 0,-1.27647 0.93327,-2.97368 2.07227,-3.77148 1.139,-0.7978 3.55303,-3.75161 5.36523,-6.564457 4.8659,-7.552628 14.18652,-18.237483 20.01172,-22.939453 1.5133,-1.22157 1.52412,-1.552694 0.10742,-3.714844 -0.8554,-1.30554 -1.55664,-3.024852 -1.55664,-3.820312 0,-1.68282 5.55131,-6.623047 7.44141,-6.623047 0.7075,0 3.40017,-2.260718 5.98437,-5.023438 3.8607,-4.12737 4.64282,-5.585568 4.38672,-8.173828 -0.1714,-1.73247 -0.79361,-3.30709 -1.38281,-3.5 -0.5891,-0.19292 -5.1301,2.318751 -10.0918,5.582031 -4.9617,3.263281 -10.72213,6.403163 -12.79883,6.976563 -2.0768,0.57341 -4.63178,1.817245 -5.67968,2.765625 -3.0643,2.7731 -4.09066,0.473975 -5.16016,-11.578125 -0.8476,-9.55054 -0.74964,-11.627212 0.72266,-15.482422 2.2088,-5.78356 5.42735,-9.838832 7.25195,-9.138672 0.7876,0.30223 2.42021,-0.07109 3.62891,-0.828125 3.0175,-1.89004 9.38888,-2.910429 10.17968,-1.630859 0.3504,0.56687 1.9809,1.03125 3.625,1.03125 1.6441,0 4.85221,0.9 7.12891,2 5.0655,2.44736 5.75492,2.47712 5.79492,0.25 0.0173,-0.9625 1.20944,-2.608723 2.64844,-3.658203 1.25785,-0.91739 1.92456,-1.377295 2.43555,-1.390625 z m -108.61133,0.544922 c -0.002,0.0014 -0.002,0.0024 -0.004,0.0039 0.003,-9.91e-4 0.007,-7.55e-4 0.01,-0.002 -0.002,-1.6e-4 -0.004,-0.0018 -0.006,-0.002 z m 22.05664,0.253906 c 0.2425,0 0.43945,0.45 0.43945,1 0,0.55 -0.47619,1 -1.05859,1 -0.5825,0 -0.78131,-0.45 -0.44141,-1 0.3399,-0.55 0.81805,-1 1.06055,-1 z m 77.9707,1 c 1.6173,0 1.98612,1.562927 0.57422,2.435547 -0.4924,0.3043 -1.15335,-0.119566 -1.46875,-0.941406 -0.3483,-0.90766 0.002,-1.494141 0.89453,-1.494141 z m -86.96289,7 c 3.4654,0 3.31665,3.560503 -0.18555,4.439453 -3.1885,0.80026 -3.76265,0.332916 -2.90625,-2.365234 0.4288,-1.3512 1.508,-2.074219 3.0918,-2.074219 z m 133.5,4.474609 c -0.002,0.004 -0.006,0.0058 -0.008,0.0098 0.01,0.007 0.0197,0.01398 0.0293,0.02148 -0.009,-0.0105 -0.0193,-0.02065 -0.0215,-0.03125 z m 23.77734,25.525391 c 0.6352,0 1.10688,1.0125 1.04688,2.25 -0.2165,4.50128 -2.86459,17.39498 -4.77539,23.25 -1.0769,3.3 -2.25945,7.8 -2.62695,10 -0.9625,5.760343 -5.66762,14.910513 -7.88672,15.337893 -1.6509,0.31792 -1.78069,-0.0801 -1.14649,-3.49024 0.3936,-2.11657 1.59462,-6.32265 2.66992,-9.347653 1.0753,-3.024998 2.55767,-8.3125 3.29297,-11.75 1.263,-5.9046 1.23462,-6.25 -0.52148,-6.25 -1.2017,0 -2.09228,0.97222 -2.51758,2.75 -0.3618,1.5125 -2.67407,7.475 -5.13867,13.25 -5.7053,13.368473 -10.73884,28.157983 -11.64844,34.226563 -0.3897,2.59968 -1.11899,4.9807 -1.62109,5.29102 -2.8017,1.7315 -3.25666,-20.08355 -0.63086,-30.25196 1.9965,-7.73125 5.82338,-15.408901 9.70508,-19.470701 1.6248,-1.70027 2.95312,-3.835721 2.95312,-4.744141 0,-2.17014 1.95157,-4.050781 4.20117,-4.050781 1.387,0 1.79883,-0.795014 1.79883,-3.464844 0,-2.52182 0.58569,-3.777834 2.15039,-4.615234 1.1823,-0.63279 3.81266,-2.898595 5.84571,-5.035157 2.0325,-2.136569 4.2145,-3.884765 4.8496,-3.884765 z m -174.13086,1.832031 c -0.0428,0.05815 -0.13566,0.207346 -0.18164,0.275391 -0.006,0.01856 -0.0175,0.04054 -0.0254,0.0625 0.0676,-0.111269 0.16269,-0.254753 0.20703,-0.337891 z m 223.75391,1.009766 c -0.074,-0.0143 0.0458,0.997642 0.2207,1.320312 0.17103,0.31561 -0.0386,-0.584517 -0.10546,-1.029297 -0.0253,-0.0711 -0.0454,-0.147192 -0.0723,-0.216797 -0.0189,-0.0489 -0.0324,-0.07222 -0.043,-0.07422 z m -86.33203,7.197265 c 0.12027,-0.0444 0.47793,0.757808 0.86328,1.960938 1.0177,3.17777 1.0371,17.482949 0.0293,21.724609 -0.9854,4.147818 -3.84037,8.509364 -5.07227,7.748044 -1.3129,-0.81143 -1.2106,-8.197994 0.125,-9.023434 0.5946,-0.36746 0.80787,-1.750416 0.47657,-3.072266 -0.33171,-1.32185 0.30772,-6.058634 1.41992,-10.527344 1.1122,-4.46871 2.06609,-8.401371 2.12109,-8.738281 0.007,-0.0421 0.0199,-0.06587 0.0371,-0.07227 z m -39.0332,14.466797 c 0.55556,-0.0202 1.51256,0.784737 2.28711,1.966797 2.3493,3.5855 1.97667,4.814267 -0.89063,2.935547 -2.5247,-1.6542 -3.24747,-3.829427 -1.60937,-4.841797 0.0612,-0.0378 0.13352,-0.05775 0.21289,-0.06055 z M 89.222656,92.201172 c 0.56839,-0.003 1.466789,0.464575 2.542969,1.541016 2.53162,2.531648 2.511972,5.936087 -0.02344,8.460932 -1.9155,1.9001 -1.941407,1.90064 -1.941407,-0.0488 0,-1.08624 0.463597,-2.438139 1.029297,-3.003909 0.7049,-0.70491 0.384722,-1.848222 -1.017578,-3.63086 -1.57094,-1.99718 -1.537174,-3.312709 -0.589844,-3.318359 z M 231.75,99.960938 c 0.0771,0.004 0.15663,0.01967 0.23828,0.04687 1.8542,0.61807 2.16239,2.77149 0.39649,2.77149 -0.8708,0 -1.58399,-0.71316 -1.58399,-1.58399 0,-0.76199 0.40936,-1.266056 0.94922,-1.234372 z m 84.04102,8.218752 c 0.61128,-0.0119 1.06925,0.23326 1.57421,0.65234 1.6056,1.33256 1.77193,3.68982 0.41993,5.94727 -0.4942,0.825 -1.62718,4.2 -2.51758,7.5 -1.4556,5.39464 -2.47031,6.8325 -10.06641,14.25 -7.7541,7.572 -10.40958,9.48862 -10.39258,7.5 0.004,-0.4125 0.89939,-2.1 1.99219,-3.75 2.8657,-4.32716 2.47616,-4.97903 -1.55664,-2.59961 -4.0241,2.3743 -8.44336,2.77551 -8.44336,0.76562 0,-3.52955 14.37726,-21.42907 20.56836,-25.60742 4.98685,-3.36555 7.07704,-4.63196 8.42188,-4.6582 z m -148.53907,34.46093 c 2.62755,-0.011 5.13955,0.47475 5.66211,1.32032 0.3913,0.63305 1.77318,0.81113 3.30078,0.42773 2.0193,-0.5068 3.20751,-0.0795 5.12891,1.8418 1.3755,1.37555 3.39257,2.97835 4.48047,3.56055 1.0878,0.58219 1.97656,1.77403 1.97656,2.64843 0,1.23313 0.673,1.45367 3,0.98828 3.1829,-0.63658 3.68903,0.19488 2.01953,3.31446 -0.7794,1.45628 -0.4717,2.16512 1.5,3.45703 1.3643,0.8939 2.48047,1.97682 2.48047,2.40625 0,1.07812 -5.76043,6.40067 -10.04883,9.28515 -6.4691,4.3515 -22.32922,18.195 -30.76562,26.85352 -7.7065,7.90934 -8.41348,8.4003 -9.67188,6.69922 -1.9853,-2.68371 -2.82198,-14.9651 -1.64648,-24.16406 1.4342,-11.22247 3.38304,-18.06661 7.43164,-26.07813 3.7467,-7.41408 6.70497,-10.72494 10.70117,-11.97656 1.25584,-0.39333 2.87465,-0.57736 4.45117,-0.58399 z m 135.80274,18.72461 c 4.88762,0.12932 4.58381,1.25725 0.99609,4.60352 -5.1405,4.79445 -6.56741,5.06953 -12.04101,2.32031 -5.7804,-2.90338 -8.18132,-5.24637 -6.07032,-5.92383 0.7494,-0.24051 5.74883,-0.63369 11.11133,-0.87304 1.34605,-0.0601 2.53943,-0.10358 3.58594,-0.125 0.91569,-0.0187 1.71974,-0.01 2.41797,-0.002 z m -91.27149,13.96485 c 0.28636,0.007 0.54638,0.04 0.77735,0.0976 1.5077,0.37539 3.28898,1.39424 3.95898,2.26563 0.67,0.8714 1.21852,2.03594 1.22852,2.58594 0.0104,0.98869 -7.14215,6.5 -8.43555,6.5 -0.3682,0 -4.83754,2.7 -9.93164,6 -5.0942,3.3 -9.71363,6 -10.26563,6 -0.5521,0 -1.76285,0.8375 -2.68945,1.86132 -2.0347,2.24844 -9.39314,5.70258 -10.27344,4.82227 -0.3461,-0.34609 0.67057,-2.26349 2.25977,-4.25977 5.0813,-6.38288 5.43623,-7.42349 3.70703,-10.85546 -1.0551,-2.09409 -1.12902,-2.67118 -0.23242,-1.81836 2.5661,2.44061 6.34954,1.41265 10.46094,-2.83985 4.97887,-5.14968 15.14012,-10.47227 19.43554,-10.35937 z m 70.69532,3.99609 c 0.98493,0.0732 3.40044,2.84295 6.35546,8.00781 2.8787,5.03153 3.93286,10.44532 2.03516,10.44532 -1.0842,0 -5.06836,-5.34126 -5.06836,-6.79492 0,-0.54253 -0.88856,-2.94814 -1.97656,-5.34571 -1.96997,-4.34141 -2.21476,-6.37708 -1.3457,-6.3125 z m -237.011723,4.09375 c -0.003,-0.0238 -0.214593,0.22826 -0.408203,0.49024 -0.005,0.0356 -0.0058,0.0704 -0.0098,0.10546 0.10191,-0.13889 0.162876,-0.2135 0.384766,-0.5371 0.0242,-0.0352 0.0339,-0.0534 0.0332,-0.0586 z M 219.15625,195.7793 c 0.734,0 2.09996,0.84549 3.03516,1.8789 1.6296,1.80064 1.46982,2.00892 -3.83008,5 -3.0416,1.71659 -5.80272,3.1211 -6.13672,3.1211 -0.3341,0 -1.75189,0.9 -3.15039,2 -2.6344,2.07222 -10.63807,2.83332 -11.70117,1.11328 -1.4718,-2.38151 16.3554,-13.11328 21.7832,-13.11328 z m 63.93945,6.07812 c 0.36736,-0.029 0.79129,1.4753 1.21875,4.67188 0.3494,2.6125 1.05115,6.05386 1.56055,7.64843 0.5093,1.59458 0.86597,3.16958 0.79297,3.5 -0.0735,0.33043 -0.42932,2.71955 -0.79102,5.3086 -0.3618,2.58938 -1.00217,5.05101 -1.42187,5.4707 -1.784,1.78398 -2.6039,-2.95021 -2.5,-14.42773 0.0708,-7.81748 0.52835,-12.1235 1.14062,-12.17188 z m -155.0332,22.99219 c 0.0416,-0.006 0.082,-0.002 0.12109,0.0137 0.37526,0.15218 0.62767,1.33054 0.64453,3.66602 0.0895,12.30892 1.21114,34.71977 2.02344,40.4414 1.1873,8.3647 1.18273,14.87643 0.0137,16.74024 -0.7556,1.19407 -1.58105,1.22983 -4.96875,0.21484 -5.1519,-1.54354 -6.0957,-3.38725 -6.0957,-11.9082 0,-7.2774 2.41322,-26.66934 3.94922,-31.73828 0.5,-1.65 1.43141,-6.2625 2.07031,-10.25 0.72463,-4.5232 1.61801,-7.08592 2.24219,-7.17969 z m 64.26367,0.92969 c 1.3396,0 0.19626,8.05761 -1.68164,11.85156 -4.347,8.782 -11.68072,13.94889 -23.66992,16.67578 -10.4117,2.36809 -12.22166,0.93489 -13.69336,-10.84375 -0.7439,-5.95434 0.21429,-7.32707 2.71289,-3.88477 3.7976,5.23205 9.46061,6.38283 18.37891,3.73438 5.3691,-1.59446 12.8639,-8.34969 15.8457,-14.2832 0.8983,-1.7875 1.84652,-3.25 2.10742,-3.25 z m -47.52539,38 c 0.55,0 1,0.47613 1,1.05859 0,0.58246 -0.45,0.78133 -1,0.44141 -0.55,-0.33992 -1,-0.81801 -1,-1.06055 0,-0.24254 0.45,-0.43945 1,-0.43945 z m 55.86328,62.33398 c 0.0889,0.009 0.13672,0.0367 0.13672,0.0859 0,1.12056 -4.00254,4.96798 -7.14844,6.87109 -2.0071,1.21422 -6.23723,3.93356 -9.39843,6.04102 -6.5575,4.3715 -23.19635,12.66797 -25.40625,12.66797 -2.7168,0 0.87532,-2.44183 15.45312,-10.50391 7.7,-4.25842 16.025,-9.17511 18.5,-10.92578 2.475,-1.75068 5.2875,-3.48148 6.25,-3.8457 0.72188,-0.27314 1.34668,-0.41805 1.61328,-0.39063 z m 81.4668,0.1582 c -0.91996,-0.0655 -1.36041,1.81442 -0.85547,5.18164 0.4792,3.19548 0.10341,6.1739 -1.33789,10.63282 -1.1012,3.40633 -2.73667,9.34336 -3.63477,13.19336 -0.898,3.85 -3.7397,11.24944 -6.3164,16.44336 -3.8708,7.80229 -5.73203,10.32224 -10.70313,14.5 -6.4233,5.39811 -10.48242,10.60112 -10.48242,13.43554 0,0.95737 1.60395,4.99702 3.56445,8.97657 4.716,9.57295 4.43514,10.65021 -2.75976,10.62304 -4.1017,-0.0155 -6.20986,-0.53714 -7.72266,-1.90625 -2.3492,-2.12601 -2.75632,-6.99891 -0.91992,-11.02929 1.3247,-2.90739 0.68788,-4.11902 -1.51562,-2.88477 -0.8265,0.46291 -5.7483,4.7683 -10.9375,9.56836 -9.5715,8.85371 -16.71289,17.86329 -16.92579,21.35352 -0.0644,1.05581 2.20919,5.82703 5.05079,10.60351 5.0478,8.48507 5.16539,8.86397 5.15039,16.5 -0.0193,9.86363 -0.44569,10.60022 -5.27149,9.11914 -5.5469,-1.7024 -6.8151,-3.74082 -7.7832,-12.49805 -1.5781,-14.27478 -1.91489,-15.56315 -3.67969,-14.0996 -2.1297,1.76609 -4.02374,6.56746 -5.64844,14.31835 -2.1221,10.12329 -0.30159,17.50893 8.34961,33.88282 8.7307,16.52448 10.93753,22.35739 15.58203,41.16211 4.6447,18.80519 4.84922,27.05508 0.97852,39.43164 -1.462,4.675 -4.15162,10.75 -5.97852,13.5 -4.3044,6.47903 -5.06916,9.10657 -3.19336,10.98242 0.81241,0.81241 1.77839,3.26022 2.14649,5.43945 0.8766,5.18855 2.8908,6.9513 5.375,4.70313 3.2435,-2.93538 7.26133,-12.27321 8.29883,-19.28711 0.5564,-3.76101 2.38259,-11.17623 4.05859,-16.47852 2.873,-9.08931 2.95406,-9.77401 1.41406,-11.97265 -0.8984,-1.28258 -1.61379,-3.46925 -1.59179,-4.85938 l 0.041,-2.52734 2.80469,3.27734 c 3.6023,4.20895 5.36438,3.5368 8.45898,-3.22266 2.6737,-5.84028 7.88073,-22.34317 9.48243,-30.05468 1.2804,-6.1641 2.36342,-20.5 1.54882,-20.5 -0.3283,0 -3.12835,2.3126 -6.22265,5.14062 -8.3351,7.61776 -12.857,10.31501 -17.5625,10.4707 -3.5719,0.11821 -4.4409,-0.31469 -6.8418,-3.40039 -1.9129,-2.45841 -2.75,-4.70618 -2.75,-7.38671 0,-3.2961 0.4702,-4.12532 3.25,-5.73047 3.6044,-2.08134 11.07057,-7.90934 16.32617,-12.74414 2.1064,-1.9377 3.42383,-4.09168 3.42383,-5.59571 0,-1.34476 0.84787,-3.21204 1.88477,-4.15039 3.3561,-3.03679 3.38937,-7.11164 0.082,-15.03125 -1.6606,-3.98896 -3.83257,-8.12685 -4.82617,-9.19336 -0.9936,-1.0665 -2.07685,-3.59904 -2.40625,-5.6289 -0.3294,-2.02985 -2.42872,-7.97448 -4.66602,-13.21094 -4.4406,-10.39354 -4.71321,-11.53906 -2.75391,-11.53906 2.9884,0 12.07645,12.78984 19.18555,27 2.0637,4.125 4.54146,8.625 5.50586,10 4.7898,6.82904 14.946,35.83564 17.5957,50.2539 2.2887,12.45385 1.40826,24.12138 -2.33984,31.00782 -1.4878,2.73364 -5.61377,7.72996 -9.16797,11.10351 -3.5542,3.37354 -8.17874,7.76784 -10.27734,9.76563 -5.1843,4.93528 -5.02089,7.48197 0.84961,13.26953 2.5657,2.52938 5.0551,4.59961 5.5332,4.59961 0.4781,0 4.11714,2.19305 8.08594,4.875 14.0622,9.50273 30.24654,14.60902 35.58594,11.22656 1.5892,-1.00675 -2.63273,-2.62009 -9.73243,-3.71875 -3.7224,-0.57602 -4.56409,-1.16137 -5.74609,-3.99023 -0.8893,-2.12843 -3.53447,-4.77324 -7.38867,-7.39063 -5.0232,-3.41117 -6.00391,-4.55071 -6.00391,-6.98047 0,-1.59705 0.50384,-3.21541 1.11914,-3.5957 1.252,-0.77373 12.87524,-24.44377 15.43164,-31.42578 5.2355,-14.29931 10.70085,-38.56922 13.06055,-58 2.195,-18.07528 1.46061,-48.73821 -1.52149,-63.5 -2.62709,-13.00449 -10.28354,-35.0274 -16.58984,-47.71875 -4.3683,-8.79109 -5.48356,-12.78125 -3.56836,-12.78125 3.7108,0 17.19146,30.63928 26.06836,59.25 1.8344,5.9125 3.73009,10.75 4.21289,10.75 1.7462,0 -3.0603,-19.60319 -7.8457,-32 -8.1031,-20.99153 -9.80864,-25.16917 -12.92774,-31.65625 -1.892,-3.93512 -3.43945,-7.40212 -3.43945,-7.70508 0,-0.30295 -1.125,-2.2082 -2.5,-4.23438 -2.6084,-3.84376 -3.29787,-8.79463 -1.38867,-9.97461 1.4308,-0.88423 0.32692,-9.68218 -1.70899,-13.61914 -0.79556,-1.53852 -1.52028,-2.27907 -2.07226,-2.31836 z M 78.607422,345.85742 c 1.35528,-0.0111 1.94973,1.51263 1.09375,3.7461 -0.5597,1.46022 -1.542031,2.19863 -2.644531,1.98632 -2.2516,-0.43369 -2.27366,-3.76645 -0.0332,-5.17968 0.594948,-0.3753 1.132224,-0.54904 1.583984,-0.55274 z m 90.095698,7.92188 c 2.97283,0 -0.26481,7.31606 -5.28124,11.93554 -3.51252,3.23441 -5.48699,1.63774 -3.27149,-2.64648 1.8894,-3.65362 7.07921,-9.28906 8.55273,-9.28906 z m -15.79296,11 c 1.9688,0 0.62376,2.31043 -4.80664,8.25781 -6.198,6.78814 -9.12567,9.25126 -9.98047,8.39648 -1.5375,-1.53753 11.88451,-16.65429 14.78711,-16.65429 z m 68.23828,4.29687 c 0.0194,0.0553 0.0543,0.13123 0.0586,0.16797 0.0336,0.0756 0.0495,0.15436 0.0781,0.22852 4e-5,-0.0131 -0.009,-0.0379 -0.004,-0.0449 -0.0101,-0.11424 -0.0648,-0.22444 -0.13281,-0.35156 z m -88.29102,6.70313 c 1.5171,0 1.08575,3.63806 -0.59765,5.03515 -2.3573,1.95635 -3.76748,-0.14931 -1.89258,-2.82617 0.8511,-1.2151 1.97133,-2.20898 2.49023,-2.20898 z m 90.70899,4.13867 c 0.0101,0.0236 0.0175,0.0449 0.0273,0.0684 0.005,0.002 0.0236,0.008 0.0293,0.01 -0.0207,-0.0265 -0.0332,-0.0509 -0.0566,-0.0781 z m -1.63868,0.85351 c 0.0265,0.0147 0.0575,0.0189 0.0859,0.0293 -0.0613,-0.0189 -0.11872,-0.0474 -0.0859,-0.0293 z m 60.30665,0.16016 c 0.0778,0.002 0.15985,0.0143 0.24609,0.0312 2.3345,0.45934 5.04437,4.52832 7.20117,10.81641 4.3591,12.70865 3.15039,28.65129 -2.72461,35.93554 -4.9752,6.16862 -7.58189,7.49504 -15.49219,7.89454 -7.1827,0.36272 -7.2725,0.33616 -12.44922,-3.75586 -2.86799,-2.26695 -5.21484,-4.77419 -5.21484,-5.57227 0,-0.79809 1.34022,-2.14491 2.97852,-2.99219 2.8073,-1.45172 2.94463,-1.7984 2.36523,-6.02539 -0.5591,-4.07944 -0.42679,-4.48437 1.47461,-4.48437 1.642,0 2.22171,-0.80475 2.69531,-3.75 1.4147,-8.79907 0.64494,-8.13966 9.24024,-7.93555 l 7.74609,0.18555 0.28711,-10.31641 c 0.22978,-8.29849 0.47901,-10.06657 1.64649,-10.03125 z m -14.07032,2.05859 c 1.71061,0.0131 3.79042,3.36791 7.09961,10.69141 0.8459,1.872 1.53711,3.7845 1.53711,4.25 0,1.04386 -2.3951,1.11658 -3.4082,0.10352 -0.4085,-0.40849 -2.62227,-1.19599 -4.91797,-1.75 -4.9184,-1.18697 -5.73659,-3.71992 -3.17773,-9.84375 0.94601,-2.26415 1.84082,-3.45904 2.86718,-3.45118 z m -170.683591,0.98243 c 0.27274,0.007 0.542681,0.0601 0.808593,0.16211 0.832,0.31927 1.511719,1.03 1.511719,1.57812 0,1.11167 -5.797447,8.11916 -7.748047,9.36523 -1.9332,1.23506 -1.481568,2.70118 0.832032,2.70118 3.1919,0 1.743715,2.29107 -2.458985,3.89062 -5.3004,2.01734 -6.782015,0.27382 -3.291015,-3.875 1.4369,-1.70767 3.451062,-4.99761 4.476562,-7.31054 1.90426,-4.29499 3.959951,-6.55959 5.869141,-6.51172 z M 6.15625,384.89453 c -0.95693,0.0247 -1.8396875,0.8563 -2.5859375,2.49414 -1.0206,2.2401 -0.9214625,2.80639 0.7109375,4 2.0272,1.48233 4.7574095,1.81875 5.853516,0.72266 1.0316,-1.03162 0.804781,-2.19021 -0.9492191,-4.86719 C 8.1425969,385.6524 7.11318,384.86988 6.15625,384.89453 Z m 147.40234,3.12109 c 0.77042,0.0708 1.54663,0.65506 2.39844,1.70704 2.2688,2.80184 2.44973,10.08897 0.39453,15.91406 -3.0172,8.55157 -4.13772,24.16226 -1.73242,24.13476 1.0062,-0.0115 3.17927,-5.07031 3.19727,-7.4414 0.0224,-2.99899 1.04388,-4.14207 5.27148,-5.90235 3.8504,-1.60324 6.71289,-6.13205 6.71289,-10.61718 0,-2.41037 1.53183,-2.69725 2.39453,-0.44922 0.7845,2.04434 0.55628,23.70875 -0.30469,28.91797 -1.25416,7.59013 -12.86811,29.5 -15.63671,29.5 -0.7711,0 -2.08716,-1.32764 -2.92579,-2.94922 -0.8385,-1.62158 -2.89797,-4.98212 -4.57617,-7.46875 -1.6782,-2.48662 -4.20608,-7.79845 -5.61718,-11.80274 -2.358,-6.69115 -2.52044,-8.21026 -2.01954,-18.77929 0.5667,-11.95867 1.89913,-17.23307 7.17383,-28.38282 1.98944,-4.20537 3.47245,-6.23291 4.93946,-6.3789 0.11002,-0.011 0.22001,-0.012 0.33007,-0.002 z m -46.48828,21.08985 c 0.235,-0.0214 0.39632,0.006 0.47657,0.0859 0.35098,0.35098 0.10266,2.12087 -0.55274,3.93359 -0.6555,1.81273 -1.19336,4.39642 -1.19336,5.74219 0,1.34578 -1.125,4.10346 -2.5,6.12695 -4.509883,6.63681 -2.70657,6.53527 5.51953,-0.31055 6.6362,-5.52268 9.23946,-6.0089 3.97266,-0.74218 -3.5272,3.52723 -2.53409,5.07834 1.54101,2.4082 1.3574,-0.88939 2.4668,-1.16719 2.4668,-0.61719 0,0.55 -1.16841,1.76663 -2.59766,2.70313 -3.01649,1.97646 -4.57669,5.33868 -3.24609,6.99414 1.034,1.2865 -5.67152,9.76414 -13.794921,17.44336 -8.3012,7.84734 -26.408578,21.35925 -36.642578,27.34179 -11.3319,6.62442 -23.847125,12.60147 -24.953125,11.91797 -3.0502,-1.88516 5.465819,-24.39379 14.699219,-38.85351 4.4851,-7.02382 15.529656,-18.46048 25.535156,-26.4375 7.7626,-6.18886 27.744599,-17.41474 31.269529,-17.73633 z m -53.357419,13.04492 c -0.22092,-0.0135 -0.450397,-0.0131 -0.689453,0.002 -0.8827,0.0553 -1.881769,0.31371 -2.955079,0.82813 -1.9244,0.92233 -2.767578,2.08262 -2.767578,3.8125 0,3.13651 3.301705,3.81651 6.941407,1.43164 3.95911,-2.59406 2.784573,-5.87207 -0.529297,-6.07422 z m 45.380859,8.76563 c -0.99797,-0.17974 -3.039909,1.23013 -4.136719,2.98632 -1.4494,2.32089 -0.279637,1.9687 3.101563,-0.93554 0.9659,-0.82964 1.592278,-1.6734 1.392578,-1.87305 -0.0942,-0.0942 -0.214852,-0.15206 -0.357422,-0.17773 z m -42.640625,1.26171 c -0.10597,-0.0146 -0.215056,-0.0145 -0.322266,0.002 -0.14294,0.0219 -0.283842,0.0718 -0.414062,0.15234 -0.521,0.32197 -0.685281,1.01028 -0.363281,1.53125 0.3219,0.52097 1.012203,0.68533 1.533203,0.36328 0.521,-0.32197 0.683328,-1.01223 0.361328,-1.5332 -0.18113,-0.29305 -0.476982,-0.47197 -0.794922,-0.51563 z m 217.970705,7.60157 c 2.1841,0 2.36939,0.38649 2.27539,4.75 -0.0564,2.6125 -0.68413,8.20315 -1.39453,12.42382 -2.0533,12.20047 -3.35521,12.84479 -6.47071,3.20118 -2.0817,-6.44368 -2.09257,-6.77939 -0.42187,-12.25 2.1196,-6.9405 2.99562,-8.125 6.01172,-8.125 z m -240.123049,6 c -4.9048,0 -6.464926,7.1471 -2.003906,9.17968 2.0624,0.93966 2.8441,0.82279 4.5,-0.67578 3.5835,-3.24299 2.039206,-8.5039 -2.496094,-8.5039 z m 86.537109,9 c 4.8603,0 7.97946,3.14332 6.10156,6.15039 -1.0597,1.69682 -1.01163,2.33191 0.29297,3.77343 3.5808,3.95676 0.37666,12.90115 -5.33594,14.89258 -3.4566,1.205 -3.79036,2.62154 -1.60156,6.81836 1.8109,3.47229 1.90104,5.56968 0.30664,7.16406 -3.8206,3.82057 -7.90599,-1.67298 -7.02929,-9.45117 0.3696,-3.27941 0.0543,-4.88445 -1.23633,-6.31054 -0.9521,-1.05187 -1.39934,-2.44793 -0.99414,-3.10352 0.4052,-0.6556 1.10548,-4.83888 1.55468,-9.29492 0.9214,-9.1405 2.04031,-10.63867 7.94141,-10.63867 z m -27.261718,19.64062 c 0.10949,-10e-4 0.190088,0.0245 0.236328,0.0781 0.37,0.42941 1.484816,3.93125 2.478516,7.78125 2.4818,9.61628 7.497724,19.18895 12.673824,24.18945 6.137,5.92878 18.06981,11.3184 24.97071,11.2793 6.1719,-0.035 5.10619,-1.01692 -3.16211,-2.91407 -5.0505,-1.15881 -9.20643,-3.83121 -12.67383,-8.14843 -2.2312,-2.77813 0.77976,-8.95857 6.16016,-12.64258 8.7789,-6.01106 18.61398,-7.39121 23.11718,-3.24219 3.209,2.95667 7.40007,11.45443 7.41407,15.03125 0.0136,3.55178 -5.68772,8.86084 -10.32422,9.61328 -2.0159,0.32711 -3.66602,0.98682 -3.66602,1.46485 0,1.52937 2.61243,0.95057 12.14063,-2.68555 9.2597,-3.53363 13.26376,-5.93452 19.75976,-11.84961 2.5724,-2.34198 3.19962,-2.6085 2.57422,-1.0957 -0.4548,1.1 -0.90214,4.7 -0.99414,8 -0.1288,4.61361 0.23427,6.3466 1.57617,7.5 3.4744,2.98624 3.29774,7.02573 -0.5918,13.51172 -8.18019,13.64118 -20.55804,22.59761 -41.46484,30.00195 -10.467,3.70701 -21.9972,3.71856 -34.499999,0.0117 -4.95,-1.46482 -10.449676,-3.03358 -12.222656,-3.48438 -4.31139,-1.0963 -8.608809,-4.8015 -15.537109,-13.39648 -6.8572,-8.50686 -9.329285,-13.29919 -11.833985,-22.94141 -2.3218,-8.93834 -2.408484,-15.83016 -0.271484,-21.79297 1.8192,-5.07618 5.730434,-8.23052 17.365234,-14.00195 3.575,-1.77337 8.714322,-4.96744 11.419922,-7.09766 2.3674,-1.86395 4.589019,-3.16211 5.355469,-3.16992 z m -35.367188,74.45899 c -1.16765,-0.1026 -1.426134,0.74609 -2.021484,3.72265 -0.5378,2.68922 -0.340332,3.17774 1.289062,3.17774 1.058701,0 2.465002,-0.54114 3.125,-1.20118 1.865201,-1.86518 1.4165,-4.59693 -0.875,-5.32421 -0.636969,-0.20217 -1.128358,-0.3408 -1.517578,-0.375 z m 190.046876,33.94336 c -0.81719,-0.0785 -1.45508,0.26182 -1.45508,1.0625 0,0.60811 -1.12003,2.43792 -2.49023,4.0664 -1.3703,1.62847 -3.18124,5.33152 -4.02344,8.22852 -2.419,8.32132 -6.44257,12.91061 -15.04297,17.16015 -4.7197,2.33201 -9.3022,5.58936 -12.4043,8.81836 -7.4594,7.7642 -18.18415,22.45431 -21.47265,29.41211 -3.0162,6.3816 -5.1234,8.27576 -3.9336,3.53516 0.3691,-1.4703 3.07804,-7.73563 6.01953,-13.92383 2.94142,-6.1882 5.34766,-11.72237 5.34766,-12.29687 0,-0.5745 1.125,-4.49093 2.5,-8.70313 1.375,-4.2122 2.5,-8.27646 2.5,-9.03125 0,-2.25135 -1.95834,-1.55596 -3.18164,1.12891 -0.6265,1.375 -1.92429,2.5 -2.88476,2.5 -1.54152,0 -8.6265,5.38457 -21.4336,16.29297 -2.2,1.8739 -5.35,4.23489 -7,5.24609 -1.65,1.0113 -5.01232,3.44199 -7.47266,5.40039 -2.46028,1.9585 -5.69339,4.46055 -7.18359,5.56055 -1.4902,1.1 -5.10089,3.8429 -8.02539,6.0957 -2.9246,2.2527 -6.89336,4.89715 -8.81836,5.87695 -10.3786,5.2828 -25.62952,21.04871 -31.14062,32.19141 -2.8114,5.6843 -2.95065,6.43889 -1.77735,9.68359 1.0363,2.8651 1.03549,3.80989 -0.0254,5.08399 -0.9992,1.2039 -1.04149,2.2001 -0.18359,4.3164 0.6134,1.513 1.0345,3.87696 0.9375,5.25196 -0.3827,5.4127 0.19224,8 1.77734,8 1.3685,0 1.51262,-1.18074 1.04492,-8.55274 -0.7029,-11.0788 0.38721,-13.854 5.09571,-12.9707 3.0524,0.5727 3.43189,0.36362 4.40429,-2.42578 1.0208,-2.9281 2.86719,-4.20638 2.86719,-1.98438 0,2.1013 4.51345,-0.39113 9.43555,-5.21093 2.729,-2.6722 5.27382,-4.52063 5.65429,-4.10743 0.38051,0.4132 0.91009,9.07696 1.17579,19.25196 0.4465,17.1063 1.68177,25.38828 3.51367,23.55468 0.3999,-0.3975 0.57127,-8.89737 0.38867,-18.88867 -0.4323,-23.6473 1.03018,-38.42063 4.48828,-45.33203 2.4542,-4.9048 9.78129,-13.23043 10.77149,-12.24023 0.5528,0.5528 1.65802,37.48105 1.51562,50.65625 -0.1052,9.7426 0.38786,10.6448 4.10156,7.5 1.7493,-1.4814 9.06107,-13.08865 13.78907,-21.88868 0.7332,-1.3645 2.33123,-2.93558 3.55273,-3.49218 1.2215,-0.5566 2.78952,-1.9198 3.48242,-3.0293 3.4198,-5.4759 13.83502,-17.27709 17.23242,-19.52539 4.8865,-3.2337 5.33952,-4.83061 3.44532,-12.14063 -0.8499,-3.28007 -1.54688,-6.44385 -1.54688,-7.03124 0,-3.375 17.73764,-19.72604 20.4336,-18.83594 0.5865,0.1937 1.3912,2.34242 1.7871,4.77344 2.255,13.84748 1.43663,13.02778 9.79493,9.80468 10.2011,-3.9337 24.40815,-7.81813 26.59375,-7.26953 3.266,0.8197 3.65909,-0.92137 1.84179,-8.16797 -0.9077,-3.6194 -1.39092,-6.83955 -1.07422,-7.15625 0.3166,-0.3167 3.01922,1.51311 6.00782,4.06641 2.9886,2.5532 5.71408,4.64258 6.05468,4.64258 0.3406,0 -2.26551,-3.4875 -5.79101,-7.75 -12.3657,-14.95105 -15.48025,-22.3019 -12.62695,-29.80664 1.0334,-2.71808 -0.30929,-6.00155 -2.02149,-4.94336 -0.4254,0.26289 -1.32811,-0.19278 -2.00781,-1.01172 -0.72205,-0.87004 -1.71992,-1.36681 -2.53711,-1.44531 z m -31.08984,65.13867 v 0.002 c -2.25595,0.2391 -8.36524,4.49898 -8.36524,5.98438 0,0.5135 0.5606,0.56533 1.25,0.11523 0.6875,-0.4489 3.04528,-1.92926 5.23828,-3.28906 2.8866,-1.7898 3.51414,-2.56384 2.27344,-2.80274 -0.11321,-0.022 -0.24609,-0.01 -0.39648,-0.01 z m 75.61523,1.81836 c -0.5776,0 -0.988,4.4123 -1,10.75 -0.0183,9.7908 -0.77456,17.6726 -2.47266,25.75 -0.4212,2.0039 -0.11416,3.664 0.92774,5 1.5402,1.9748 1.5918,1.96376 4.0625,-0.80664 1.3763,-1.5431 2.50758,-4.0181 2.51758,-5.5 0.008,-1.4818 0.48775,-3.36836 1.06445,-4.19336 0.6509,-0.9319 0.86219,-5.53118 0.55859,-12.14258 -0.3733,-8.1298 -0.98318,-11.6122 -2.58398,-14.75 -1.1525,-2.2592 -2.53542,-4.10742 -3.07422,-4.10742 z m -2.38867,46.09179 c -0.24239,0.012 -0.52287,0.0429 -0.8418,0.0879 -1.7245,0.2449 -2.3223,1.07932 -2.5625,3.57032 -0.3828,3.9705 1.19283,4.2204 3.15234,0.5 1.78711,-3.3929 1.94864,-4.24191 0.25196,-4.15821 z m -66.11328,0.94532 v 0.002 c -1.37814,0.023 -3.12862,0.13263 -5.46875,0.29883 -8.842,0.6276 -21.91297,4.33813 -30.00977,8.51953 -12.5874,6.5003 -16.08789,8.60538 -20.93359,12.58398 -5.4869,4.5049 -17.06641,17.21753 -17.06641,18.73633 0,1.507 2.34427,0.84711 4.63477,-1.30469 1.2449,-1.1696 2.84895,-1.9006 3.56445,-1.625 0.7155,0.2756 2.39617,4.41397 3.73438,9.19727 1.33815,4.7833 3.18195,9.2268 4.09765,9.875 0.9156,0.6482 1.97547,2.85133 2.35547,4.89453 0.8869,4.7693 1.93516,5.33493 6.16406,3.32813 2.9999,-1.4235 3.45514,-2.11975 3.49414,-5.33985 0.0248,-2.0367 0.61922,-5.04896 1.32032,-6.69336 l 1.27539,-2.99023 1.82226,2.78125 c 1.8122,2.7657 3.06227,7.36077 4.19727,15.42187 0.4063,2.8861 0.0788,5.30709 -1.03321,7.65039 -1.9975,4.2094 -2.04338,6.46536 -0.20898,10.22266 0.7796,1.597 1.5671,5.1543 1.75,7.9043 0.302,4.5424 0.12603,5.02806 -1.91797,5.31836 -1.9394,0.2755 -2.25,0.91956 -2.25,4.66796 0,2.3918 -0.27167,5.06175 -0.60547,5.93165 -1.0472,2.7288 1.20663,1.73533 5.48633,-2.41797 2.267,-2.2 4.46672,-4 4.88672,-4 2.1074,0 12.6235,-12.55185 17.2793,-20.62305 3.3887,-5.8746 3.55809,-7.30791 1.37109,-11.53711 -2.7681,-5.3529 -6.38832,-37.92364 -5.51172,-49.58984 0.0574,-0.7648 1.57201,-1.25 3.90235,-1.25 2.09486,0 4.5312,0.5625 5.4121,1.25 0.8809,0.6875 3.95798,7.1 6.8379,14.25 5.71037,14.177 7.2196,16.62208 9.0996,14.74218 1.151,-1.1511 0.35708,-3.31828 -7.23242,-19.74218 -2.4297,-5.258 -4.92578,-12.40628 -4.92578,-14.10938 0,-0.7466 2.31192,-2.52954 5.13672,-3.96094 3.8592,-1.9557 5.9723,-2.4449 8.5,-1.9707 1.9935,0.374 3.36328,0.22431 3.36328,-0.36719 0,-2.4054 -2.37213,-5.80831 -5.58203,-8.00781 -2.02106,-1.3848 -3.11204,-1.95131 -5.67773,-2.03711 -0.38486,-0.013 -0.80235,-0.01 -1.26172,-0.01 z m 54.55078,15.95507 -0.002,0.008 c -0.74261,0.01 -16.83594,21.283 -23.07421,30.5 -4.6792,6.9134 -14.04647,18.5 -14.95703,18.5 -0.4132,0 -1.29795,1.31783 -1.96485,2.92773 -0.9587,2.314 -0.92955,3.66301 0.0606,6.44531 1.2308,3.4036 1.15247,3.64377 -2.36133,7.32227 -1.9983,2.092 -5.11764,6.02589 -6.93164,8.74219 -1.814,2.7162 -3.83308,5.10815 -4.48828,5.31445 -0.6553,0.2063 -1.93545,-1.06186 -2.84375,-2.81836 l -1.65235,-3.19336 -2.15625,1.98047 c -1.1864,1.0892 -4.75383,4.52161 -7.92773,7.62891 -3.1738,3.1072 -6.44334,5.65039 -7.26563,5.65039 -1.82218,0 -12.46289,6.94361 -12.46289,8.13281 0,0.4679 -1.35,2.05519 -3,3.52539 -1.65,1.4701 -3,3.58793 -3,4.70703 0,1.5825 -0.26787,1.76729 -1.20117,0.83399 -2.1522,-2.1523 -6.27753,-1.35282 -9.29883,1.80078 -1.5808,1.65 -3.3808,3 -4,3 -0.6192,0 -2.44905,1.39139 -4.06445,3.09179 -1.6154,1.7003 -4.51055,3.90861 -6.43555,4.90821 -4.1492,2.1544 -12.32147,10.22829 -14.76757,14.59179 -3.9366,7.0221 -5.82393,9.39635 -7.48243,9.40235 -0.9625,0 -1.75,0.45586 -1.75,1.00586 0,0.55 -0.9,1 -2,1 -1.1,0 -2,0.45 -2,1 0,0.55 -0.9,1 -2,1 -1.1111,0 -2,-0.6667 -2,-1.5 0,-2.1004 -1.29103,-1.8675 -2.76953,0.5 -0.687,1.1 -1.91993,2 -2.74023,2 -0.8877,0 -1.49024,0.92686 -1.49024,2.28906 0,2.1271 -0.4069,2.28502 -5.75,2.22852 -1.65185,-0.017 -3.40767,-0.18601 -4.88671,-0.4375 -0.21511,0.4628 -0.43735,0.93068 -0.48047,1.02148 -0.39207,0.7561 -3.17644,6.33575 -4.56836,8.53125 0.001,10e-4 0.003,0 0.004,0 0.44174,0.083 67.17612,-1.12849 89.09766,-1.40039 h 0.002 l 0.006,-0.01 c 8.1e-4,0 1.21779,-1.21523 1.77539,-1.76953 -0.002,0.01 -0.001,0.001 0.002,-0.01 h 0.002 c 0.009,-0.1737 0.0268,-0.29361 0.27344,-0.66211 0.0467,-0.07 -0.0899,0.14374 -0.13477,0.21484 0.0785,-0.1332 0.14666,-0.27309 0.23438,-0.40039 0.21795,-0.3163 0.67764,-0.76155 0.98632,-0.93555 0.12491,-0.07 0.27372,-0.0859 0.41407,-0.11523 0.0683,-0.014 -0.13149,0.0454 -0.19727,0.0684 0.22855,0.01 0.0331,0.01 0.50977,-0.3086 0.23442,-0.1559 0.46298,-0.31669 0.70117,-0.46679 0.18754,-0.1182 0.3909,-0.21134 0.57422,-0.33594 0.33487,-0.2277 0.6187,-0.52539 0.95898,-0.74609 0.37996,-0.329 0.18461,-0.14237 0.58203,-0.57227 0.43639,-0.4019 1.09989,-0.51299 1.48242,-0.99219 0.96011,-0.644 -0.0273,0.038 1.00196,-0.74023 0.13425,-0.1015 0.2792,-0.18836 0.41406,-0.28906 0.0574,-0.043 0.64392,-0.5192 0.76953,-0.5918 0.1741,-0.1006 0.36182,-0.17442 0.54297,-0.26172 1.09165,-0.18 0.5015,-0.1406 0.39453,-0.0234 -0.0383,0.043 0.11216,-0.0316 0.16406,-0.0566 1.24585,-0.5899 -0.35619,0.12986 1.12891,-0.52734 0.20141,-0.089 0.38886,-0.14268 0.56641,-0.17578 0.32949,-0.2119 0.6576,-0.42587 0.98633,-0.63867 0.0388,-0.025 0.0752,-0.0385 0.11328,-0.0606 0.32339,-0.3263 0.66189,-0.64304 1.05468,-0.92774 0.0149,-0.01 1.35263,-0.91089 1.62891,-0.99609 0.237,-0.1572 0.48466,-0.32285 0.51563,-0.34375 0.74153,-0.3601 1.45871,-0.77703 2.2246,-1.08203 0.72718,-0.2896 1.94144,-0.51693 2.75196,-0.64453 0.16697,-0.026 0.33767,-0.0217 0.5039,-0.0527 0.50501,-0.093 1.00411,-0.21856 1.50782,-0.31836 0.4745,-0.094 0.952,-0.17617 1.42773,-0.26367 0.91831,-0.1347 1.83066,-0.30724 2.75391,-0.40234 0.4318,-0.044 0.86889,-0.001 1.30273,-0.0156 1.80141,-0.061 3.59948,-0.3574 5.40235,-0.2539 5.71154,-1.63 11.32678,-3.70637 17.2207,-4.60547 1.15127,-0.1149 2.29945,-0.28755 3.45508,-0.34375 0.86762,-0.042 1.73717,0.0268 2.60546,0.0488 2.38186,0.061 4.774,0.27035 7.15235,0.0234 0.50185,-0.091 32.84558,-18.36361 60.36328,-33.51171 -0.002,0 0.002,0.001 0.002,-0.01 -0.66872,-1.7224 -1.36039,-3.50708 -2.05468,-5.30078 -7.4e-4,6e-4 0.001,8e-4 -0.004,0 -1.68292,0.032 -2.66638,-0.34832 -3.40039,-1.23242 -0.732,-0.8821 -1.86893,-1.60352 -2.52734,-1.60352 -2.58981,0 -10.1628,-7.86582 -15.7168,-16.32422 -5.02819,-7.6575 -6.83327,-11.59859 -5.44336,-11.46679 0.83395,0.079 2.81811,1.62439 5.94726,4.71289 4.48736,4.4291 9.4091,8.44301 16.20899,13.16211 h 0.002 c -15.4366,-40.071 -33.69471,-88.08034 -34.52734,-88.08204 z M 145.07617,740.7793 c -0.4337,0 -3.26015,2.04472 -6.28125,4.54492 -3.0211,2.5001 -9.24734,6.41888 -13.83594,8.70898 -8.1687,4.0768 -8.5447,4.16158 -18,4.01758 l -9.658199,-0.14648 3.876949,3.5664 3.87696,3.56641 9.12304,-0.48633 c 7.3319,-0.3918 10.59575,-1.11704 16.62305,-3.6914 4.125,-1.7618 8.45966,-4.10333 9.63086,-5.20313 l 2.12891,-2 2.12109,2.69531 c 1.1663,1.4828 2.11914,3.35907 2.11914,4.16797 0,3.7159 8.77725,27.02727 14.59375,38.75977 3.5447,7.15 6.43578,14.0125 6.42578,15.25 -0.0234,2.7506 0.58893,2.78584 4.70313,0.27734 l 3.2207,-1.96484 -4.17187,-6.28125 c -2.2947,-3.4551 -5.23112,-7.91667 -6.52539,-9.91407 -5.04521,-7.7854 -13.823,-31.51748 -16.7793,-45.36718 -2.1999,-10.306 -2.25821,-10.5 -3.19141,-10.5 z m 112.22071,12.53711 c 1.04667,-0.089 1.99105,2.67584 5.08398,11.61914 1.9675,5.6891 4.18543,11.24375 4.92773,12.34375 0.7423,1.1 3.63386,5.15 6.42579,9 2.79178,3.85 6.47444,9.3766 8.18554,12.2832 3.124,5.3067 8.26266,8.77503 11.28516,7.61523 0.7453,-0.286 2.34092,0.74512 3.54492,2.29102 1.204,1.546 4.02212,4.27305 6.26172,6.06055 3.7358,2.9816 3.69304,3.83234 -0.16406,3.27734 -1.8143,-0.261 -10.63778,-4.53357 -18.54688,-8.98047 -7.8064,-4.3891 -27.30339,-23.82134 -28.15039,-28.05664 -0.329,-1.6451 -1.17189,-2.99023 -1.87109,-2.99023 -1.6817,0 -7.47852,-6.65419 -7.47852,-8.58399 0,-1.4767 4.95107,-9.52993 8.79297,-14.30273 0.72913,-0.9057 1.22704,-1.53597 1.70313,-1.57617 z m -82.93555,3.46289 c 0.2425,0 0.43945,0.45 0.43945,1 0,0.55 -0.47619,1 -1.05859,1 -0.5825,0 -0.78131,-0.45 -0.44141,-1 0.3399,-0.55 0.81805,-1 1.06055,-1 z m 74.34375,28 c 0.4036,0 2.72901,2.33354 5.16601,5.18554 5.6882,6.6569 22.63367,23.28176 28.35157,27.81446 4.1091,3.2573 4.37709,3.75782 3.87109,7.23242 -0.4319,2.9662 -0.17944,3.87251 1.22656,4.41211 1.1169,0.4286 2.21913,0.067 2.98633,-0.98242 0.6686,-0.9144 1.40768,-1.66211 1.64258,-1.66211 0.2349,0 0.52955,1.35993 0.65625,3.02343 0.2435,3.1952 -0.10205,3.45824 -5.81055,4.39844 -2.6094,0.4298 -3.82783,1.3063 -4.76953,3.4336 -1.0249,2.3155 -1.74729,2.76614 -3.80469,2.37304 -1.9722,-0.377 -2.6635,-0.01 -3.0957,1.64258 -0.7405,2.8316 -1.74637,2.68361 -4.19727,-0.62109 l -2.03906,-2.75 -3.92773,4.25 c -4.6425,5.0226 -6.58745,5.32625 -8.00782,1.25195 -0.57468,-1.6485 -2.1954,-3.52046 -3.5996,-4.16016 -1.4041,-0.6398 -2.55274,-1.7672 -2.55274,-2.5039 0,-0.7368 -0.47268,-1.33789 -1.05078,-1.33789 -0.578,0 -1.67651,-1.4625 -2.44141,-3.25 -0.7648,-1.7875 -3.66724,-6.34696 -6.44921,-10.13086 -2.78211,-3.7839 -5.0586,-7.40704 -5.0586,-8.05274 0,-0.6458 -1.56898,-2.69634 -3.48828,-4.55664 -4.3018,-4.1695 -5.54601,-9.20938 -2.97461,-12.05078 0.9755,-1.078 2.29956,-1.95898 2.94336,-1.95898 0.6438,0 4.43884,-2.475 8.43164,-5.5 3.9929,-3.025 7.58849,-5.5 7.99219,-5.5 z m -41.47461,17.45117 c 0.30485,-0.027 0.67423,0.0339 1.10351,0.19922 0.8225,0.3156 1.4668,1.83408 1.4668,3.45508 0,3.5327 -0.4804,3.6152 -2.5625,0.4375 -1.44194,-2.2007 -1.26272,-3.9748 -0.008,-4.0918 z m 6.08984,11.04101 c 1.23821,0.079 3.40412,2.12737 7.06641,6.47657 3.2536,3.8639 7.60156,8.91957 9.66406,11.23437 2.0625,2.3148 3.75,4.70957 3.75,5.32227 0,1.2502 3.74752,4.73193 6.91602,6.42773 2.2411,1.1994 2.67288,2.56359 1.11718,3.52539 -0.532,0.3287 -0.71083,1.8753 -0.39843,3.4375 0.9645,4.8226 -1.35483,4.40975 -6.86133,-1.22265 -8.1842,-8.3713 -23.12784,-30.62805 -22.55274,-33.58985 0.18769,-0.9666 0.52097,-1.51316 1.0625,-1.60156 0.0745,-0.012 0.15379,-0.01 0.23633,-0.01 z m 107.02735,5.66016 c 0.002,0 0.007,5e-4 0.01,0 -0.004,10e-5 -0.008,10e-4 -0.01,0 z m -145.17383,4.02148 c 0.14286,-0.011 0.2754,-0.0104 0.39453,0.0156 2.9047,0.5535 2.64621,4.3392 -0.46289,6.7832 -8.2576,6.4911 -21.1499,20.14455 -28.5918,30.27735 -2.7266,3.7125 -5.32539,6.75 -5.77539,6.75 -1.995,0 -1.60007,-1.9918 1.3711,-6.9043 1.75595,-2.9038 3.88938,-6.52116 4.74218,-8.03906 6.3524,-11.307 12.22666,-18.11976 19.34766,-22.43946 1.7064,-1.0351 4.12224,-2.97941 5.36914,-4.32031 1.09112,-1.1733 2.60545,-2.04484 3.60547,-2.12305 z m -19.31641,0.82618 c -1.0638,0 -4.22404,4.16463 -3.61914,4.76953 0.2153,0.2152 1.32946,-0.11071 2.47656,-0.72461 2.0892,-1.1181 2.91608,-4.04492 1.14258,-4.04492 z m 39.00391,1.79687 c 1.03466,-0.056 2.49973,1.56726 5.88867,6.22656 8.631,11.8666 8.13404,13.10316 -1.53516,3.81836 -6.6468,-6.3826 -7.37583,-7.7984 -5.01953,-9.7539 0.21137,-0.1755 0.42725,-0.27792 0.66602,-0.29102 z m -46.20508,7.58203 c -0.35353,0.028 -1.05757,0.42373 -2.16797,1.29883 -5.8884,4.6407 -8.52035,7.14019 -9.56055,9.08399 -2.4076,4.4985 -1.33994,3.92168 6.94336,-3.76172 3.75165,-3.4799 5.84575,-6.7039 4.78516,-6.6211 z m 37.31641,1.16992 5.33593,5.47461 c 2.9349,3.0114 6.72167,6.82657 8.41407,8.47657 1.6923,1.65 3.07742,3.90456 3.07812,5.00976 0.001,2.3128 -4.17141,5.4723 -4.78711,3.625 -0.5318,-1.5953 -2.89081,-1.41682 -3.53711,0.26758 -0.2962,0.772 -0.29752,2.30164 -0.0176,3.39844 0.5734,2.1927 -1.16683,6.19922 -2.69336,6.19922 -0.53066,0 -0.98004,-0.5625 -0.99804,-1.25 -0.0688,-2.585 -3.8392,-5.92577 -5.9375,-5.25977 -1.1153,0.354 -2.0293,1.12098 -2.0293,1.70508 0,1.2256 -8.95983,9.80469 -10.24023,9.80469 -0.4702,0 -2.6366,-0.86091 -4.8125,-1.91211 -3.1968,-1.5445 -4.50339,-1.70454 -6.80469,-0.83594 -1.5664,0.5913 -3.60023,0.78639 -4.51953,0.43359 -2.4187,-0.9281 -3.61481,-4.77002 -2.25391,-7.23632 1.6946,-3.0711 19.47123,-19.4073 26.04883,-23.9375 z m -68.45704,22.49415 c -1.13648,0.08 -2.71484,1.05163 -2.71484,1.96093 0,0.7396 0.63974,0.727 2.08594,-0.0508 1.1471,-0.6139 1.84127,-1.3598 1.54297,-1.6582 -0.20608,-0.2061 -0.53521,-0.27875 -0.91407,-0.25195 z m 46.8418,3.39257 c -0.29131,-0.024 -0.65321,0.048 -1.08789,0.21485 -1.8864,0.7239 -1.92429,4.34961 -0.041,4.34961 0.7846,0 1.60571,-0.7875 1.82421,-1.75 0.40973,-1.8044 0.17862,-2.74106 -0.69531,-2.81446 z m -15.60937,6.75391 c 0.0778,-10e-4 0.15732,0.0111 0.24023,0.0391 1.4613,0.4871 2.09437,2.15749 1.16797,3.08399 -1.3041,1.3041 -2.35547,0.68041 -2.35547,-1.39649 0,-1.0183 0.40257,-1.71616 0.94727,-1.72656 z m -3.44727,1.81055 c 0.825,0 1.5,0.43605 1.5,0.96875 0,0.5327 -0.675,0.70918 -1.5,0.39257 -0.825,-0.31659 -1.5,-0.75255 -1.5,-0.96874 0,-0.2161 0.675,-0.39258 1.5,-0.39258 z m 73.89649,4.6582 c -0.0163,0 -0.0326,-0.001 -0.0488,0.01 -0.28338,0.1881 -0.24673,0.22645 0.0488,-0.01 z m 103.99804,26.90039 c -0.32557,0.046 -0.65095,0.094 -0.97656,0.14063 0.30851,-0.01 0.67082,-0.0116 0.97852,-0.0156 -5.6e-4,-0.043 0.001,-0.084 -0.002,-0.125 z"
     style="fill:#655e5c"
     id="path26" />
</svg>
